<?xml version="1.0" encoding="UTF-8"?><svg xmlns="http://www.w3.org/2000/svg" xmlns:xlink="http://www.w3.org/1999/xlink" fill-opacity="1" color-rendering="auto" color-interpolation="auto" text-rendering="auto" stroke="black" stroke-linecap="square" width="417" stroke-miterlimit="10" shape-rendering="auto" stroke-opacity="1" fill="black" stroke-dasharray="none" font-weight="normal" stroke-width="1" height="439" font-family="'Dialog'" font-style="normal" stroke-linejoin="miter" font-size="12px" stroke-dashoffset="0" image-rendering="auto">
  <!--Generated by ySVG 2.5-->
  <defs id="genericDefs"/>
  <g>
    <defs id="defs1">
      <linearGradient x1="-32" gradientUnits="userSpaceOnUse" x2="128" y1="-291" y2="-251" id="linearGradient1" spreadMethod="reflect">
        <stop stop-opacity="1" stop-color="rgb(232,238,247)" offset="0%"/>
        <stop stop-opacity="1" stop-color="rgb(183,201,227)" offset="100%"/>
      </linearGradient>
      <linearGradient x1="-32" gradientUnits="userSpaceOnUse" x2="128" y1="-198.8" y2="-158.8" id="linearGradient2" spreadMethod="reflect">
        <stop stop-opacity="1" stop-color="rgb(232,238,247)" offset="0%"/>
        <stop stop-opacity="1" stop-color="rgb(183,201,227)" offset="100%"/>
      </linearGradient>
      <linearGradient x1="-32" gradientUnits="userSpaceOnUse" x2="128" y1="-106.6" y2="-66.6" id="linearGradient3" spreadMethod="reflect">
        <stop stop-opacity="1" stop-color="rgb(232,238,247)" offset="0%"/>
        <stop stop-opacity="1" stop-color="rgb(183,201,227)" offset="100%"/>
      </linearGradient>
      <linearGradient x1="233.8" gradientUnits="userSpaceOnUse" x2="313.8" y1="-198.8" y2="-158.8" id="linearGradient4" spreadMethod="reflect">
        <stop stop-opacity="1" stop-color="rgb(232,238,247)" offset="0%"/>
        <stop stop-opacity="1" stop-color="rgb(183,201,227)" offset="100%"/>
      </linearGradient>
      <linearGradient x1="-32" gradientUnits="userSpaceOnUse" x2="128" y1="-14.4" y2="25.6" id="linearGradient5" spreadMethod="reflect">
        <stop stop-opacity="1" stop-color="rgb(232,238,247)" offset="0%"/>
        <stop stop-opacity="1" stop-color="rgb(183,201,227)" offset="100%"/>
      </linearGradient>
      <linearGradient x1="-32" gradientUnits="userSpaceOnUse" x2="128" y1="77.8" y2="117.8" id="linearGradient6" spreadMethod="reflect">
        <stop stop-opacity="1" stop-color="rgb(232,238,247)" offset="0%"/>
        <stop stop-opacity="1" stop-color="rgb(183,201,227)" offset="100%"/>
      </linearGradient>
      <clipPath clipPathUnits="userSpaceOnUse" id="clipPath1">
        <path d="M0 0 L417 0 L417 439 L0 439 L0 0 Z"/>
      </clipPath>
      <clipPath clipPathUnits="userSpaceOnUse" id="clipPath2">
        <path d="M-47 -306 L370 -306 L370 133 L-47 133 L-47 -306 Z"/>
      </clipPath>
      <clipPath clipPathUnits="userSpaceOnUse" id="clipPath3">
        <path d="M-78.4326 -228.3763 L299.4977 -52.1445 L113.9683 345.7246 L-263.962 169.4928 L-78.4326 -228.3763 Z"/>
      </clipPath>
      <clipPath clipPathUnits="userSpaceOnUse" id="clipPath4">
        <path d="M-244.713 -239.8841 L165.9519 -167.4728 L89.7203 264.8578 L-320.9445 192.4465 L-244.713 -239.8841 Z"/>
      </clipPath>
    </defs>
    <g fill="url(#linearGradient1)" text-rendering="geometricPrecision" shape-rendering="geometricPrecision" transform="matrix(1,0,0,1,47,306)" stroke="url(#linearGradient1)">
      <ellipse rx="80" ry="20" clip-path="url(#clipPath2)" cx="48" cy="-271" stroke="none"/>
    </g>
    <g text-rendering="geometricPrecision" stroke-miterlimit="1.45" shape-rendering="geometricPrecision" transform="matrix(1,0,0,1,47,306)" stroke-linecap="butt">
      <ellipse rx="80" fill="none" ry="20" clip-path="url(#clipPath2)" cx="48" cy="-271"/>
      <text x="31.0349" font-size="15px" y="-265.6225" clip-path="url(#clipPath2)" font-family="'Play'" stroke="none" xml:space="preserve">Start</text>
    </g>
    <g fill="url(#linearGradient2)" text-rendering="geometricPrecision" shape-rendering="geometricPrecision" transform="matrix(1,0,0,1,47,306)" stroke="url(#linearGradient2)">
      <path d="M-32 -198.8 L128 -198.8 L128 -158.8 L-32 -158.8 Z" stroke="none" clip-path="url(#clipPath2)"/>
    </g>
    <g text-rendering="geometricPrecision" stroke-miterlimit="1.45" shape-rendering="geometricPrecision" transform="matrix(1,0,0,1,47,306)" stroke-linecap="butt">
      <path fill="none" d="M-32 -198.8 L128 -198.8 L128 -158.8 L-32 -158.8 Z" clip-path="url(#clipPath2)"/>
      <text x="6.4872" font-size="15px" y="-173.4225" clip-path="url(#clipPath2)" font-family="'Play'" stroke="none" xml:space="preserve">Make JSONs</text>
    </g>
    <g fill="url(#linearGradient3)" text-rendering="geometricPrecision" shape-rendering="geometricPrecision" transform="matrix(1,0,0,1,47,306)" stroke="url(#linearGradient3)">
      <path d="M-32 -106.6 L128 -106.6 L128 -66.6 L-32 -66.6 Z" stroke="none" clip-path="url(#clipPath2)"/>
    </g>
    <g text-rendering="geometricPrecision" stroke-miterlimit="1.45" shape-rendering="geometricPrecision" transform="matrix(1,0,0,1,47,306)" stroke-linecap="butt">
      <path fill="none" d="M-32 -106.6 L128 -106.6 L128 -66.6 L-32 -66.6 Z" clip-path="url(#clipPath2)"/>
      <text x="-4.9504" font-size="15px" y="-81.2225" clip-path="url(#clipPath2)" font-family="'Play'" stroke="none" xml:space="preserve">Generate Pages</text>
    </g>
    <g fill="url(#linearGradient4)" text-rendering="geometricPrecision" shape-rendering="geometricPrecision" transform="matrix(1,0,0,1,47,306)" stroke="url(#linearGradient4)">
      <rect x="233.8" width="80" height="40" y="-198.8" clip-path="url(#clipPath2)" stroke="none"/>
    </g>
    <g text-rendering="geometricPrecision" stroke-miterlimit="1.45" shape-rendering="geometricPrecision" transform="matrix(1,0,0,1,47,306)" stroke-linecap="butt">
      <rect fill="none" x="233.8" width="80" height="40" y="-198.8" clip-path="url(#clipPath2)"/>
      <path fill="none" d="M243.8 -198.8 L243.8 -158.8 M303.8 -198.8 L303.8 -158.8 M243.8 -198.8 Z" clip-path="url(#clipPath2)"/>
      <text x="262.6474" font-size="15px" y="-173.4225" clip-path="url(#clipPath2)" font-family="'Play'" stroke="none" xml:space="preserve">API</text>
    </g>
    <g fill="url(#linearGradient5)" text-rendering="geometricPrecision" shape-rendering="geometricPrecision" transform="matrix(1,0,0,1,47,306)" stroke="url(#linearGradient5)">
      <path d="M-32 -14.4 L128 -14.4 L128 25.6 L-32 25.6 Z" stroke="none" clip-path="url(#clipPath2)"/>
    </g>
    <g text-rendering="geometricPrecision" stroke-miterlimit="1.45" shape-rendering="geometricPrecision" transform="matrix(1,0,0,1,47,306)" stroke-linecap="butt">
      <path fill="none" d="M-32 -14.4 L128 -14.4 L128 25.6 L-32 25.6 Z" clip-path="url(#clipPath2)"/>
      <text x="24.9973" font-size="15px" y="10.9775" clip-path="url(#clipPath2)" font-family="'Play'" stroke="none" xml:space="preserve">Deploy</text>
    </g>
    <g fill="url(#linearGradient6)" text-rendering="geometricPrecision" shape-rendering="geometricPrecision" transform="matrix(1,0,0,1,47,306)" stroke="url(#linearGradient6)">
      <rect x="-32" y="77.8" clip-path="url(#clipPath2)" width="160" rx="20" ry="20" height="40" stroke="none"/>
    </g>
    <g text-rendering="geometricPrecision" stroke-miterlimit="1.45" shape-rendering="geometricPrecision" transform="matrix(1,0,0,1,47,306)" stroke-linecap="butt">
      <rect x="-32" y="77.8" clip-path="url(#clipPath2)" fill="none" width="160" rx="20" ry="20" height="40"/>
      <text x="35.0699" font-size="15px" y="103.1775" clip-path="url(#clipPath2)" font-family="'Play'" stroke="none" xml:space="preserve">End</text>
    </g>
    <g text-rendering="geometricPrecision" stroke-miterlimit="1.45" shape-rendering="geometricPrecision" transform="matrix(1,0,0,1,47,306)" stroke-linecap="butt">
      <path fill="none" d="M48 -250.9663 L48 -206.7796" clip-path="url(#clipPath2)"/>
    </g>
    <g text-rendering="geometricPrecision" stroke-miterlimit="1.45" shape-rendering="geometricPrecision" transform="matrix(1,0,0,1,47,306)" stroke-linecap="butt">
      <path d="M48 -198.7796 L53 -210.7796 L48 -207.7796 L43 -210.7796 Z" stroke="none" clip-path="url(#clipPath2)"/>
      <path fill="none" d="M48 -158.7663 L48 -114.5796" clip-path="url(#clipPath2)"/>
      <path d="M48 -106.5796 L53 -118.5796 L48 -115.5796 L43 -118.5796 Z" clip-path="url(#clipPath2)" stroke="none"/>
      <path fill="none" d="M128.0168 -178.8 L225.8306 -178.8" clip-path="url(#clipPath2)"/>
      <path d="M233.8306 -178.8 L221.8306 -183.8 L224.8306 -178.8 L221.8306 -173.8 Z" clip-path="url(#clipPath2)" stroke="none"/>
      <text x="162.4763" xml:space="preserve" y="-182.8759" clip-path="url(#clipPath2)" font-family="sans-serif" stroke="none">Serve</text>
      <path fill="none" d="M96.9803 -106.5999 L226.3761 -159.4356" clip-path="url(#clipPath2)"/>
      <path d="M233.7825 -162.4598 L220.7828 -162.5525 L225.4503 -159.0576 L224.563 -153.2945 Z" clip-path="url(#clipPath2)" stroke="none"/>
    </g>
    <g text-rendering="geometricPrecision" stroke-miterlimit="1.45" shape-rendering="geometricPrecision" font-family="sans-serif" transform="matrix(0.9063,-0.4226,0.4226,0.9063,167.6001,173.8322)" stroke-linecap="butt">
      <text x="2" xml:space="preserve" y="13.2383" clip-path="url(#clipPath3)" stroke="none">GET Request</text>
    </g>
    <g text-rendering="geometricPrecision" stroke-miterlimit="1.45" shape-rendering="geometricPrecision" transform="matrix(1,0,0,1,47,306)" stroke-linecap="butt">
      <path fill="none" d="M313.7704 -166.673 L316.6584 -165.7968 L344.4994 -155.3769 L351.9615 -150.798 L354.677 -146.4598 L354.1513 -144.3387 L352.3151 -142.2271 L344.545 -137.965 L331.036 -133.5383 L311.4574 -128.8121 L252.7681 -117.9206 L135.9206 -100.048" clip-path="url(#clipPath2)"/>
      <path d="M128.0125 -98.8384 L140.6306 -95.7103 L136.9091 -100.1992 L139.1186 -105.5953 Z" clip-path="url(#clipPath2)" stroke="none"/>
    </g>
    <g text-rendering="geometricPrecision" stroke-miterlimit="1.45" shape-rendering="geometricPrecision" font-family="sans-serif" transform="matrix(0.9848,-0.1736,0.1736,0.9848,282.6507,193.7458)" stroke-linecap="butt">
      <text x="2" xml:space="preserve" y="13.2383" clip-path="url(#clipPath4)" stroke="none">GET Response</text>
    </g>
    <g text-rendering="geometricPrecision" stroke-miterlimit="1.45" shape-rendering="geometricPrecision" transform="matrix(1,0,0,1,47,306)" stroke-linecap="butt">
      <path fill="none" d="M48 -66.5663 L48 -22.3796" clip-path="url(#clipPath2)"/>
      <path d="M48 -14.3796 L53 -26.3796 L48 -23.3796 L43 -26.3796 Z" clip-path="url(#clipPath2)" stroke="none"/>
      <path fill="none" d="M48 25.6337 L48 69.8204" clip-path="url(#clipPath2)"/>
      <path d="M48 77.8204 L53 65.8204 L48 68.8204 L43 65.8204 Z" clip-path="url(#clipPath2)" stroke="none"/>
    </g>
  </g>
</svg>
